<svg version="1.1" id="Layer_1" xmlns="http://www.w3.org/2000/svg" xmlns:xlink="http://www.w3.org/1999/xlink" x="0px" y="0px"
	 width="100%" viewBox="0 0 352 288" enable-background="new 0 0 352 288" xml:space="preserve">
<path fill="#000000" opacity="1.000000" stroke="none" 
	d="
M84.512444,126.515457 
	C78.816277,132.984787 74.543533,139.810287 72.947884,148.094589 
	C72.683174,149.468903 72.301346,151.391159 70.311081,151.160919 
	C67.881287,150.879852 68.394241,148.871765 68.586525,147.242554 
	C69.297371,141.219589 71.064568,135.514557 74.198746,130.318924 
	C75.570709,128.044540 75.040176,126.019028 74.966438,123.545837 
	C74.624985,112.093109 65.599373,104.285301 63.349491,93.711693 
	C62.343460,88.983727 60.152504,84.507904 59.267582,79.597900 
	C66.606941,89.203156 73.661827,98.851357 76.795418,111.209915 
	C88.633591,99.207031 103.510742,95.317650 118.874802,92.612587 
	C122.068275,92.050323 122.704185,90.466171 122.357002,87.349953 
	C121.603012,80.582306 121.329659,73.759636 120.929573,66.955368 
	C120.858253,65.742416 120.289413,64.287041 122.149529,63.199566 
	C126.699837,69.152275 127.098953,76.312897 128.275406,83.213928 
	C128.526108,84.684616 128.711960,86.175255 128.793823,87.664062 
	C128.994003,91.304314 130.644562,92.753204 134.489532,92.802002 
	C140.533676,92.878685 146.107513,94.482971 151.082596,98.531296 
	C154.632309,101.419785 158.843353,103.638840 163.186920,105.427635 
	C164.897369,106.132042 167.147903,106.526329 167.413193,109.405777 
	C165.368347,110.886765 163.068558,110.417686 160.867355,109.981613 
	C156.228439,109.062622 151.802231,107.319160 148.266357,104.239273 
	C143.771637,100.324181 138.548584,99.341850 132.993683,99.369049 
	C121.882729,99.423431 110.667458,98.460464 99.856804,102.140564 
	C93.631897,104.259605 88.074341,107.557388 83.162125,111.903587 
	C80.313141,114.424301 78.408897,117.410599 79.549980,122.437393 
	C88.613358,113.978897 98.940651,110.173508 111.025070,111.440094 
	C101.102707,114.420860 92.318832,119.276451 84.512444,126.515457 
z"/>
<path fill="#000000" opacity="1.000000" stroke="none" 
	d="
M92.319611,193.375031 
	C92.912216,191.509186 92.256966,189.583282 94.456223,188.281921 
	C96.569794,193.956543 98.885506,199.527893 97.981056,205.504425 
	C94.507523,228.457108 103.663269,247.825119 114.779938,266.717163 
	C116.063698,268.898804 119.229752,269.115143 120.002663,271.913422 
	C118.251106,274.836792 115.422386,274.287537 113.499077,273.027496 
	C110.194160,270.862274 107.545708,271.881134 104.767258,273.567139 
	C101.309792,275.665192 97.565025,277.050201 93.666641,277.948334 
	C91.551285,278.435730 88.858780,278.595184 88.218018,275.966034 
	C87.652512,273.645660 90.324265,273.477203 91.869835,272.688171 
	C95.570877,270.798798 99.217743,268.797668 102.966064,267.008362 
	C105.777458,265.666321 105.923332,263.922150 104.505608,261.413361 
	C98.478325,250.747589 94.495796,239.296722 91.942017,227.357330 
	C91.287407,224.296951 89.848045,224.180984 87.316147,224.909866 
	C82.779076,226.215973 78.210884,227.672012 72.961227,226.936584 
	C73.727814,223.403595 76.315544,222.584305 78.569038,222.194839 
	C87.990913,220.566574 92.141441,215.314255 91.982567,205.648758 
	C91.918480,201.749908 92.699242,197.755371 92.319611,193.375031 
z"/>
<path fill="#000000" opacity="1.000000" stroke="none" 
	d="
M258.903992,60.934574 
	C253.497833,65.726410 247.796066,69.449646 241.621964,72.419258 
	C238.620773,73.862755 237.796356,75.382874 239.724854,78.580902 
	C242.553619,83.271851 244.836075,88.287453 248.084137,92.748024 
	C251.440765,97.357735 251.469421,103.110229 253.235825,108.270874 
	C255.164688,113.906189 256.814453,119.637039 258.698334,125.687508 
	C268.632477,122.569992 278.166199,119.578140 288.067535,116.470924 
	C288.397369,119.679710 286.378021,120.229332 284.983795,121.048424 
	C279.233093,124.426872 273.046295,126.896111 266.891357,129.411270 
	C263.101471,130.959976 259.478760,132.423080 260.009125,137.682724 
	C260.141449,138.994888 259.480713,140.608154 258.146942,141.574265 
	C255.592697,141.604889 255.064606,139.772812 254.846527,137.958054 
	C253.274780,124.878296 248.975433,112.375504 245.943588,99.656487 
	C243.872940,90.969765 237.806656,83.067627 232.198334,75.592041 
	C230.312607,73.078476 227.020020,73.927887 224.486420,72.283775 
	C226.072906,69.643471 228.451370,69.153770 230.626312,69.860916 
	C233.663986,70.848564 235.551147,69.228111 237.937836,68.038933 
	C247.492325,63.278381 256.159027,57.051659 265.413208,51.811077 
	C266.891510,50.973915 268.338684,49.473839 271.569153,50.771664 
	C267.126312,54.332329 263.151154,57.518166 258.903992,60.934574 
z"/>
<path fill="#000000" opacity="1.000000" stroke="none" 
	d="
M137.068054,173.254379 
	C126.671089,178.167847 115.395416,178.470078 105.064873,182.159729 
	C100.369072,183.836899 95.746277,185.719818 91.100723,187.535858 
	C87.341011,189.005615 84.455032,188.036926 82.296608,185.112167 
	C101.365654,177.139572 121.668015,173.641907 139.953934,164.478210 
	C146.899567,160.997498 154.422043,160.997177 161.748642,159.752365 
	C163.582733,159.440750 166.226044,158.736023 166.809937,161.416565 
	C167.362396,163.952805 165.079529,165.433945 163.057541,165.990372 
	C159.877502,166.865433 156.523788,167.109421 153.235794,167.621826 
	C152.515182,169.614502 154.139496,170.348068 155.121841,171.311859 
	C160.346115,176.437515 165.234192,181.924316 171.194595,186.264404 
	C173.399323,187.869766 175.009521,189.976791 175.911057,192.574951 
	C176.463257,194.166367 176.133652,195.621826 174.735443,196.558807 
	C173.043549,197.692581 171.964752,196.492523 171.009811,195.251495 
	C164.203339,186.405930 154.846298,179.910934 148.410507,170.723770 
	C147.421844,169.312454 146.156570,169.650131 144.849823,170.175339 
	C142.381073,171.167542 139.903183,172.137024 137.068054,173.254379 
z"/>
<path fill="#000000" opacity="1.000000" stroke="none" 
	d="
M220.604202,254.753937 
	C216.115067,254.959274 214.701508,257.075867 215.269089,261.024536 
	C215.550568,262.982849 215.368729,265.012024 215.345978,267.008575 
	C215.326065,268.756073 215.030869,270.618500 212.947693,270.800293 
	C210.468399,271.016724 210.175858,268.807922 209.840317,267.053009 
	C209.498337,265.264496 209.275101,263.418488 209.299164,261.601654 
	C209.358337,257.134766 206.975647,255.445770 202.825806,255.382980 
	C201.445404,255.362106 199.846954,255.693649 198.777771,254.360184 
	C199.321548,252.331482 200.887695,252.804779 202.091736,252.730042 
	C221.646500,251.516052 239.826523,245.166245 257.621216,237.593338 
	C261.653870,235.877182 265.821045,233.477402 265.800476,227.918427 
	C265.795746,226.639526 266.357758,225.601608 267.852051,225.623886 
	C269.243805,225.644608 269.899445,226.637146 270.207611,227.826462 
	C271.291351,232.008881 269.903442,235.589508 266.650177,238.042328 
	C263.629639,240.319702 263.355560,242.578552 264.081940,246.143051 
	C265.341095,252.321945 266.200409,258.585052 267.846802,264.695312 
	C268.272644,266.275787 268.983185,268.258820 266.937469,269.056641 
	C264.509216,270.003662 263.914734,267.707794 263.110474,266.135071 
	C259.632599,259.334351 258.394531,252.016174 258.520782,243.637207 
	C245.689301,247.480103 233.576035,251.908524 220.604202,254.753937 
z"/>
<path fill="#000000" opacity="1.000000" stroke="none" 
	d="
M179.310013,135.580032 
	C178.035568,126.271851 176.292374,117.461563 176.124405,108.380577 
	C174.559677,107.372902 172.532654,109.225662 170.379944,107.075851 
	C177.435928,104.029060 180.608582,97.318153 185.030106,91.930130 
	C187.910370,93.290588 187.588974,95.397095 186.485107,96.739990 
	C177.601013,107.547836 181.622635,119.504128 183.584000,131.059891 
	C185.657867,143.278412 187.285370,155.724060 193.552826,166.824982 
	C194.322525,168.188278 194.707336,169.777084 192.990402,170.745438 
	C191.509277,171.580811 190.540344,170.381836 189.588409,169.444717 
	C186.669281,166.571014 185.749924,162.578217 183.779114,158.172470 
	C178.189423,162.880005 173.023636,167.201279 167.898148,171.569855 
	C166.762085,172.538147 165.801041,173.709061 164.698669,174.720474 
	C163.843338,175.505234 162.883682,176.394836 161.662964,175.401230 
	C160.517792,174.469101 160.983948,173.294037 161.454742,172.210861 
	C163.302582,167.959549 166.891144,165.131149 169.995895,161.923813 
	C171.260681,160.617233 172.632828,159.224686 174.237686,158.469955 
	C181.282547,155.156952 182.277206,149.755829 180.251953,142.932343 
	C179.600235,140.736633 179.677505,138.324554 179.310013,135.580032 
z"/>
<path fill="#000000" opacity="1.000000" stroke="none" 
	d="
M243.248901,173.288513 
	C226.476456,174.251678 210.539352,178.056931 193.295914,180.860031 
	C195.307129,176.162201 198.226059,175.414780 200.969482,174.585022 
	C216.033905,170.028717 231.458572,167.809799 247.186768,167.664902 
	C255.664017,167.586807 256.075806,167.618500 256.430450,158.826111 
	C256.692413,152.331879 258.917297,146.483871 260.561066,140.411713 
	C260.865662,139.286514 261.217926,138.188889 262.937744,137.357498 
	C265.355011,141.084641 264.343842,145.083084 264.052826,148.807724 
	C263.652252,153.935120 262.954132,159.073120 261.889465,164.101974 
	C261.261566,167.067734 262.470276,167.885498 264.850891,168.677505 
	C267.704590,169.626923 272.665863,170.287384 271.717041,173.622635 
	C270.503479,177.888611 266.339752,174.265457 263.649414,173.816467 
	C256.994171,172.705719 250.372665,173.056274 243.248901,173.288513 
z"/>
<path fill="#000000" opacity="1.000000" stroke="none" 
	d="
M126.016357,142.929016 
	C127.929237,142.697647 129.350494,141.033936 131.023392,142.371277 
	C131.278702,143.993408 129.950241,144.318634 129.008881,144.874802 
	C116.990700,151.975296 105.008942,159.139847 92.905907,166.093109 
	C87.891350,168.974014 83.258438,171.942642 81.665031,178.025436 
	C81.265732,179.549713 80.329903,181.437119 78.204674,180.812607 
	C76.098717,180.193756 75.742119,178.323730 76.115372,176.336685 
	C76.587547,173.823059 77.752396,171.697693 79.478737,169.781998 
	C85.007706,163.646515 91.625481,158.902008 98.832703,155.055984 
	C107.482620,150.440125 116.462410,146.485870 126.016357,142.929016 
z"/>
<path fill="#000000" opacity="1.000000" stroke="none" 
	d="
M164.065796,269.302673 
	C158.100677,271.292267 157.771896,271.287323 153.291183,269.331360 
	C153.565811,266.864105 155.616623,266.872284 157.321381,266.531342 
	C161.858765,265.623932 163.773331,262.600525 163.616379,258.302368 
	C163.380447,251.841217 162.725159,245.395645 162.476532,238.934662 
	C162.347687,235.586319 161.798737,231.998993 164.380981,229.375839 
	C165.733017,229.194153 166.681335,229.808762 166.649323,230.528076 
	C166.281464,238.795670 173.488205,244.247147 174.526779,252.048065 
	C174.956039,255.272308 176.476608,258.385223 179.125931,260.698944 
	C180.340347,261.759521 181.114136,263.200500 179.735535,264.577606 
	C178.497528,265.814209 176.926849,265.328339 175.590729,264.530182 
	C171.681076,262.194672 170.859238,257.981110 169.237167,253.500381 
	C169.149094,259.613831 168.745529,265.013153 164.065796,269.302673 
z"/>
<path fill="#000000" opacity="1.000000" stroke="none" 
	d="
M117.742699,125.401337 
	C104.266014,131.364395 92.161667,138.825790 81.690208,148.847015 
	C77.886551,152.487122 75.339172,156.456116 76.242928,162.043762 
	C76.520401,163.759308 76.745575,166.048904 74.280411,166.528564 
	C71.614388,167.047318 71.057167,164.703857 70.339684,162.888031 
	C68.911179,159.272766 69.955795,155.865845 71.975067,152.933273 
	C82.427628,137.753174 96.730988,128.084869 114.621323,123.726631 
	C116.631859,123.236847 116.658516,123.346268 117.742699,125.401337 
z"/>
<path fill="#000000" opacity="1.000000" stroke="none" 
	d="
M186.463226,244.275085 
	C184.420441,231.640091 178.318970,220.600769 176.203888,208.431046 
	C175.696564,205.511993 173.935745,202.415512 176.257523,199.470734 
	C178.310547,200.001358 178.322754,201.718277 178.765015,203.062195 
	C182.559631,214.592987 186.338425,226.129272 190.050659,237.686783 
	C191.967270,243.653839 192.361481,249.774765 191.119522,255.916504 
	C190.731506,257.835327 189.831100,259.686432 188.942642,261.456818 
	C188.234314,262.868256 186.994293,263.876251 185.265106,263.217957 
	C183.422943,262.516663 183.538696,260.838074 183.956863,259.397003 
	C185.354645,254.579941 186.128128,249.668747 186.463226,244.275085 
z"/>
<path fill="#000000" opacity="1.000000" stroke="none" 
	d="
M146.203278,271.475586 
	C139.303925,274.601959 135.920517,273.971344 133.758560,269.288971 
	C136.686630,268.667084 139.617844,268.205566 142.449600,267.396088 
	C145.074997,266.645630 146.257523,264.842224 145.282944,262.024445 
	C142.949615,255.278137 142.127365,248.047745 138.675201,241.651886 
	C137.721237,239.884460 136.720963,237.591034 139.011108,236.341599 
	C141.666489,234.892914 142.760605,237.433701 143.912048,239.215424 
	C148.906174,246.943146 149.427734,255.811935 150.297455,264.578522 
	C150.599411,267.621979 148.604187,269.475952 146.203278,271.475586 
z"/>
<path fill="#000000" opacity="1.000000" stroke="none" 
	d="
M122.828766,254.095963 
	C120.296867,248.616730 118.238205,243.334106 115.128853,238.548187 
	C114.307213,237.283493 112.998741,235.512665 114.951904,234.128998 
	C116.717560,232.878128 118.068275,234.048248 119.168709,235.456497 
	C125.986771,244.181808 129.684357,254.238846 131.233505,265.057281 
	C131.794418,268.974579 129.761749,271.896790 124.211189,273.663391 
	C127.505226,266.216522 126.653664,260.133667 122.828766,254.095963 
z"/>
<path fill="#000000" opacity="1.000000" stroke="none" 
	d="
M232.690125,111.944382 
	C226.860031,111.549004 225.143799,107.464958 223.782562,103.023453 
	C222.445053,98.659378 223.374359,94.022629 222.384888,89.706093 
	C221.085693,84.038445 220.139267,77.661186 211.877365,77.075653 
	C216.942169,73.129967 221.089111,74.156631 223.414383,79.277771 
	C226.036606,85.053017 227.491760,91.187836 228.803574,97.340782 
	C229.674942,101.427849 230.456726,105.462326 233.309692,108.746658 
	C234.203659,109.775795 234.129288,110.868011 232.690125,111.944382 
z"/>
<path fill="#000000" opacity="1.000000" stroke="none" 
	d="
M204.743210,115.686188 
	C205.177139,106.588356 203.852142,98.025291 203.680801,89.417801 
	C203.604706,85.595024 204.234589,81.888336 207.726227,78.818359 
	C209.766647,83.318756 207.153076,87.471558 207.880920,91.631157 
	C209.449646,100.596046 211.110580,109.592621 210.261703,118.787163 
	C210.085327,120.697517 210.414352,122.812027 207.968826,124.011391 
	C204.945389,122.110115 205.321945,118.922768 204.743210,115.686188 
z"/>
<path fill="#000000" opacity="1.000000" stroke="none" 
	d="
M195.821075,86.714600 
	C196.100189,92.316887 193.209091,97.589462 194.431961,103.224670 
	C195.861298,109.811417 195.257370,116.462517 195.272583,123.090820 
	C195.276688,124.878227 194.769501,126.682205 194.368393,128.449387 
	C194.127914,129.508835 193.346024,130.162460 192.186920,130.069809 
	C190.751450,129.955078 189.956329,128.849274 190.173645,127.690788 
	C192.013000,117.885551 189.331802,108.143562 189.887299,98.403366 
	C190.137604,94.014580 191.583618,89.585541 195.821075,86.714600 
z"/>
<path fill="#000000" opacity="1.000000" stroke="none" 
	d="
M250.110260,227.571548 
	C250.585510,223.111115 253.727692,221.171021 257.072906,220.402664 
	C264.130249,218.781708 269.279480,215.970108 267.805267,207.202118 
	C272.196198,208.051819 272.452179,210.845520 272.171844,213.629562 
	C271.759460,217.724976 269.227081,220.675598 265.871002,222.687408 
	C262.048737,224.978622 257.977356,226.856934 253.995636,228.878021 
	C252.492889,229.640778 251.113449,229.612198 250.110260,227.571548 
z"/>
<path fill="#000000" opacity="1.000000" stroke="none" 
	d="
M271.948364,194.484116 
	C273.170288,202.766647 272.113342,204.498184 264.725891,207.062195 
	C261.587616,208.151413 258.466217,209.292633 255.362869,210.477631 
	C253.861740,211.050797 252.384628,211.432892 251.367218,209.840225 
	C250.274094,208.129059 251.107666,206.593338 252.339645,205.368347 
	C254.209839,203.508759 256.688995,203.035919 259.195709,202.765076 
	C268.152100,201.797440 268.236115,201.712051 268.313843,193.021530 
	C268.321350,192.182983 268.408905,191.351608 269.406982,190.916611 
	C271.487610,190.978958 271.091461,192.998535 271.948364,194.484116 
z"/>
<path fill="#000000" opacity="1.000000" stroke="none" 
	d="
M259.846405,190.338379 
	C255.459015,190.337097 251.535522,190.305145 247.422012,187.219406 
	C255.573257,183.644943 266.431854,189.078400 270.801666,177.625381 
	C273.327423,184.629135 268.312256,189.992035 259.846405,190.338379 
z"/>
<path fill="#000000" opacity="1.000000" stroke="none" 
	d="
M178.214111,186.260254 
	C180.625137,183.467270 182.612747,180.823746 184.228088,177.883743 
	C185.269196,175.988831 186.594833,174.145599 188.881393,173.625397 
	C190.578827,173.239258 192.636154,174.298508 191.370636,175.800797 
	C187.143188,180.819168 184.879745,187.587296 178.489822,190.700180 
	C178.102402,190.888916 177.543015,190.724670 177.078995,190.724670 
	C175.214539,188.804184 177.065521,187.765060 178.214111,186.260254 
z"/>
<path fill="#000000" opacity="1.000000" stroke="none" 
	d="
M147.868088,156.395798 
	C144.981995,159.308807 142.084961,158.848343 139.148285,157.214279 
	C138.028046,156.590958 137.558105,155.543457 137.762527,154.307968 
	C138.008423,152.821747 139.294128,152.519409 140.395554,152.768204 
	C143.117096,153.382980 147.439285,150.438095 147.868088,156.395798 
z"/>
<path fill="#000000" opacity="1.000000" stroke="none" 
	d="
M137.362885,132.316925 
	C136.449692,133.083420 135.822678,133.796646 135.087509,133.934906 
	C132.602112,134.402359 129.953323,133.760406 129.459198,131.251343 
	C128.817215,127.991364 132.229156,128.593246 133.993866,128.204712 
	C136.766235,127.594345 138.540878,128.698975 137.362885,132.316925 
z"/>
<path fill="#000000" opacity="1.000000" stroke="none" 
	d="
M219.001892,129.111633 
	C215.950180,128.614029 215.025375,126.569923 213.982376,124.349525 
	C216.879471,121.865173 219.344467,123.084312 221.074539,125.030708 
	C222.552856,126.693855 221.686783,128.451416 219.001892,129.111633 
z"/>
<path fill="#000000" opacity="1.000000" stroke="none" 
	d="
M146.084503,227.669830 
	C145.574127,224.841156 147.149704,224.549850 149.005493,224.645752 
	C150.846603,224.740906 152.265656,225.559631 152.625443,227.458023 
	C152.859299,228.691971 152.264023,229.757111 151.052231,230.283386 
	C148.612320,231.343002 147.344528,229.815216 146.084503,227.669830 
z"/>
<path fill="#000000" opacity="1.000000" stroke="none" 
	d="
M99.459167,148.901978 
	C94.261703,148.776230 94.314445,145.747925 95.135262,141.362320 
	C97.870979,143.641464 101.857452,144.109436 99.459167,148.901978 
z"/>
<path fill="#000000" opacity="1.000000" stroke="none" 
	d="
M124.541534,234.059265 
	C126.833443,230.540665 128.964737,232.636520 130.769470,234.105286 
	C131.929947,235.049728 131.700562,236.762146 130.187714,237.380142 
	C127.288391,238.564484 125.514450,237.079529 124.541534,234.059265 
z"/>
<path fill="#000000" opacity="1.000000" stroke="none" 
	d="
M240.748291,204.778641 
	C239.136276,207.491318 237.359833,207.565536 235.548752,205.551529 
	C234.519836,204.407318 234.527451,202.961472 235.960175,202.273560 
	C238.205429,201.195511 240.074188,201.694626 240.748291,204.778641 
z"/>
<path fill="#000000" opacity="1.000000" stroke="none" 
	d="
M237.987106,185.750000 
	C239.793716,188.375580 238.389435,189.325317 236.296265,189.476868 
	C234.574875,189.601501 232.648102,188.757172 233.060791,186.803253 
	C233.616745,184.171005 235.740280,184.582932 237.987106,185.750000 
z"/>
<path fill="#000000" opacity="1.000000" stroke="none" 
	d="
M240.191025,218.626068 
	C242.227417,218.890442 243.327942,219.739822 242.896652,221.573959 
	C242.543350,223.076416 241.249115,223.476135 239.851425,223.477432 
	C238.548248,223.478638 237.619736,222.824570 237.403763,221.546310 
	C237.095474,219.721649 238.121841,218.848480 240.191025,218.626068 
z"/>
<path fill="#000000" opacity="1.000000" stroke="none" 
	d="
M102.648460,232.421295 
	C105.005806,231.542984 107.037117,231.333954 107.736366,233.942276 
	C108.099747,235.297775 106.994949,236.138870 105.698593,236.140518 
	C103.505219,236.143311 101.706680,235.546494 102.648460,232.421295 
z"/>
<path fill="#000000" opacity="1.000000" stroke="none" 
	d="
M128.234299,111.219070 
	C126.535454,110.616982 124.931480,110.341690 125.191559,108.052315 
	C127.515564,107.427124 130.240829,106.684998 131.485291,109.258980 
	C132.371597,111.092171 130.074203,111.207657 128.234299,111.219070 
z"/>
<path fill="#000000" opacity="1.000000" stroke="none" 
	d="
M110.852295,170.143219 
	C108.324295,170.052246 107.365509,168.798279 106.958618,166.880463 
	C109.000381,165.085693 110.829803,165.511612 112.267189,167.086548 
	C113.393898,168.321075 112.767517,169.489288 110.852295,170.143219 
z"/>
<path fill="#000000" opacity="1.000000" stroke="none" 
	d="
M203.003937,140.147217 
	C200.097916,139.508057 199.218140,137.952087 200.157562,135.035797 
	C202.803619,135.891876 206.497559,135.626022 203.003937,140.147217 
z"/>
</svg>